<?xml version="1.0" encoding="utf-8"?>
<!-- Generator: Adobe Illustrator 25.3.1, SVG Export Plug-In . SVG Version: 6.00 Build 0)  -->
<svg version="1.1" id="Layer_1" xmlns="http://www.w3.org/2000/svg" xmlns:xlink="http://www.w3.org/1999/xlink" x="0px" y="0px"
	 viewBox="0 0 1362 751.2" style="enable-background:new 0 0 1362 751.2;" xml:space="preserve">
<style type="text/css">
	.st0{fill:#FFFFFF;}
	.st1{fill:#00E0B8;}
</style>
<path class="st0" d="M0,25.2c-0.1-6.4,2.4-12.6,7-17.2C11.5,3.5,17.7,0.9,24.1,1h151.7c6.4-0.1,12.6,2.5,17.1,7.1
	c4.6,4.5,7.1,10.7,7,17.2v408.9c0,26.3,4.2,48,12.7,65.1c8.4,17.2,18.9,30.6,31.5,40.4c11.9,9.4,25.5,16.5,40.1,20.7
	c14.2,4,27,6,38.5,6.1c11.5,0,24.3-2,38.5-6.1c14.4-4.2,27.9-11.2,39.5-20.7c12.2-9.7,22.5-23.2,30.9-40.4
	c8.5-17.2,12.7-38.9,12.7-65.1V25.2c-0.1-6.4,2.4-12.6,7-17.2c4.5-4.6,10.7-7.2,17.1-7.1H620c6.4-0.1,12.6,2.5,17.1,7.1
	c4.6,4.5,7.1,10.7,7,17.2v408.9c0,47.8-7.6,91.2-22.7,130.2c-15.1,39-36.8,72.4-65,100c-28.2,27.6-62.2,49-101.8,64.1
	s-83.6,22.7-132,22.7c-48.4,0-92.4-7.6-132.1-22.7s-73.6-36.5-101.8-64.1c-28.2-27.6-50.1-60.9-65.5-100S0,481.9,0,434.1V25.2z"/>
<path class="st0" d="M1007.9,540.2h-88.1c-13.3-0.1-24.2,10.7-24.3,24c0,0.1,0,0.2,0,0.2v150.4c0.1,6.4-2.4,12.7-7,17.2
	c-4.5,4.6-10.7,7.2-17.1,7.1H719.7c-13.3,0.1-24-10.6-24.1-23.9c0-0.1,0-0.2,0-0.3V24.2c-0.1-6.4,2.4-12.6,7.1-17.1
	c4.5-4.6,10.7-7.2,17.2-7.1h309c37.7,0,73.2,7.1,106.5,21.2c32.5,13.6,62,33.5,86.8,58.6c24.7,25.1,44.5,54.5,58.6,86.8
	c14.5,33,21.7,68.3,21.7,106s-6.1,72.8-18.2,105.5c-11.8,32.1-30.6,61.1-55.2,84.8c-24.6,23.9-55.3,42.7-92.1,56.5
	C1100.1,533.2,1057.1,540.1,1007.9,540.2z M1015.3,185.8h-95.4c-6.5-0.1-12.7,2.4-17.3,7c-4.6,4.5-7.2,10.6-7.1,17.1v118.4
	c-0.1,6.4,2.5,12.6,7.1,17.1c4.5,4.6,10.8,7.1,17.3,7h108.5c25.7,0,44.5-8.2,56.3-24.6s17.8-34.9,17.8-55.6
	c0-10.8-1.9-21.5-5.6-31.6c-3.6-10.2-9.3-19.6-16.7-27.6c-7.8-8.3-17.1-14.9-27.4-19.6C1042,188.3,1029.5,185.8,1015.3,185.8z"/>
<path class="st1" d="M1362,642.1c0.2,57.3-46.1,103.8-103.4,104c-0.2,0-0.4,0-0.6,0c-13.7,0.1-27.3-2.7-39.9-8.1
	c-12.3-5.2-23.4-12.8-32.8-22.2c-19.4-19.6-30.3-46.1-30.3-73.7c-0.1-13.6,2.6-27,8.1-39.4c5.3-12.1,12.9-23,22.2-32.3
	c9.4-9.4,20.6-17,32.8-22.2c12.6-5.4,26.2-8.2,39.9-8.1c27.6,0,54.1,10.9,73.7,30.3c9.3,9.3,16.9,20.3,22.2,32.3
	C1359.4,615.2,1362.1,628.6,1362,642.1z"/>
</svg>
